<svg xmlns="http://www.w3.org/2000/svg" xmlns:xlink="http://www.w3.org/1999/xlink" width="1000" viewBox="0 0 750 749.999995" height="1000" preserveAspectRatio="xMidYMid meet"><defs><clipPath id="55f237c7bc"><path d="M 0 37.5 L 744 37.5 L 744 712.5 L 0 712.5 Z M 0 37.5 " clip-rule="nonzero"></path></clipPath></defs><g clip-path="url(#55f237c7bc)"><path fill="#100f0d" d="M 701.710938 490.871094 L 43.039062 490.871094 L 43.039062 79.734375 L 701.710938 79.734375 Z M 444.777344 558.617188 L 299.972656 558.617188 C 292.238281 558.617188 285.949219 552.351562 285.949219 544.613281 C 285.949219 536.875 292.238281 530.585938 299.972656 530.585938 L 444.777344 530.585938 C 452.53125 530.585938 458.800781 536.875 458.800781 544.613281 C 458.800781 552.351562 452.53125 558.617188 444.777344 558.617188 Z M 719.71875 37.699219 L 25.03125 37.699219 C 11.78125 37.699219 0.988281 48.492188 0.988281 61.742188 L 0.988281 574.289062 C 0.988281 587.539062 11.78125 598.332031 25.03125 598.332031 L 349.007812 598.332031 L 349.007812 662.886719 L 309.878906 662.886719 C 308.792969 662.886719 307.730469 663.214844 306.839844 663.855469 L 250.6875 703.144531 C 246.449219 706.125 248.539062 712.796875 253.742188 712.796875 L 491.007812 712.796875 C 496.210938 712.796875 498.296875 706.125 494.0625 703.144531 L 437.910156 663.855469 C 437.019531 663.214844 435.957031 662.886719 434.871094 662.886719 L 395.742188 662.886719 L 395.742188 598.332031 L 719.71875 598.332031 C 732.96875 598.332031 743.761719 587.539062 743.761719 574.289062 L 743.761719 61.742188 C 743.761719 48.492188 732.96875 37.699219 719.71875 37.699219 " fill-opacity="1" fill-rule="nonzero"></path></g><path fill="#100f0d" d="M 201.089844 186.671875 C 230.785156 186.671875 254.921875 210.835938 254.921875 240.511719 C 254.921875 270.203125 230.785156 294.347656 201.089844 294.347656 C 171.417969 294.347656 147.277344 270.203125 147.277344 240.511719 C 147.277344 210.835938 171.417969 186.671875 201.089844 186.671875 Z M 122.847656 286.375 L 105.941406 308.488281 L 133.140625 335.6875 L 155.25 318.78125 C 162.347656 322.976562 170.046875 326.207031 178.207031 328.335938 L 181.882812 355.882812 L 220.320312 355.882812 L 223.992188 328.335938 C 232.15625 326.207031 239.855469 322.976562 246.953125 318.78125 L 269.0625 335.6875 L 296.257812 308.488281 L 279.355469 286.375 C 283.550781 279.277344 286.78125 271.578125 288.929688 263.414062 L 316.453125 259.738281 L 316.453125 221.28125 L 288.929688 217.625 C 286.78125 209.460938 283.550781 201.761719 279.355469 194.644531 L 296.257812 172.550781 L 269.0625 145.351562 L 246.953125 162.257812 C 239.855469 158.0625 232.15625 154.832031 223.992188 152.683594 L 220.320312 125.15625 L 181.882812 125.15625 L 178.207031 152.683594 C 170.046875 154.832031 162.347656 158.0625 155.25 162.257812 L 133.140625 145.351562 L 105.941406 172.550781 L 122.847656 194.644531 C 118.652344 201.761719 115.421875 209.460938 113.273438 217.625 L 85.75 221.28125 L 85.75 259.738281 L 113.273438 263.414062 C 115.421875 271.578125 118.652344 279.277344 122.847656 286.375 " fill-opacity="1" fill-rule="nonzero"></path><path fill="#100f0d" d="M 581.550781 316.382812 L 629.675781 364.511719 L 592.636719 401.558594 L 599.714844 423.804688 L 659 364.511719 L 596.214844 301.738281 L 581.550781 316.382812 " fill-opacity="1" fill-rule="nonzero"></path><path fill="#100f0d" d="M 517.273438 327.464844 L 510.195312 305.21875 L 450.90625 364.511719 L 513.675781 427.304688 L 528.339844 412.621094 L 480.230469 364.511719 L 517.273438 327.464844 " fill-opacity="1" fill-rule="nonzero"></path><path fill="#100f0d" d="M 520.175781 283.976562 L 573.039062 450.363281 L 589.734375 445.042969 L 536.867188 278.675781 L 520.175781 283.976562 " fill-opacity="1" fill-rule="nonzero"></path><path fill="#100f0d" d="M 659 115.25 L 347.035156 115.25 L 347.035156 140.011719 L 659 140.011719 L 659 115.25 " fill-opacity="1" fill-rule="nonzero"></path><path fill="#100f0d" d="M 397.714844 382.675781 L 85.75 382.675781 L 85.75 407.4375 L 397.714844 407.4375 L 397.714844 382.675781 " fill-opacity="1" fill-rule="nonzero"></path><path fill="#100f0d" d="M 214.496094 452.007812 L 397.714844 452.007812 L 397.714844 427.246094 L 214.496094 427.246094 L 214.496094 452.007812 " fill-opacity="1" fill-rule="nonzero"></path><path fill="#100f0d" d="M 421.3125 189.535156 L 659 189.535156 L 659 164.773438 L 421.3125 164.773438 L 421.3125 189.535156 " fill-opacity="1" fill-rule="nonzero"></path><path fill="#100f0d" d="M 455.976562 239.058594 L 659 239.058594 L 659 214.296875 L 455.976562 214.296875 L 455.976562 239.058594 " fill-opacity="1" fill-rule="nonzero"></path></svg>